<svg width="2114" height="1730" viewBox="0 0 2114 1730" fill="none" xmlns="http://www.w3.org/2000/svg">
<g id="Group 1000006225">
<g id="Group 1000006224">
<circle id="Ellipse 5" cx="1052" cy="639" r="639" fill="white"/>
<g id="Group 1000006202">
<path id="Vector 117" d="M973.635 736.58V613.144L1133.77 538.082V666.522L973.635 736.58Z" fill="#FF7517"/>
<path id="Vector" d="M1131.5 315.999L802.613 460.546C789.634 466.728 778.712 476.534 771.155 488.786C763.599 501.038 759.731 515.216 760.015 529.618V1151H893.957V616.805C893.957 598.971 898.996 581.501 908.489 566.418C917.982 551.335 931.543 539.255 947.6 531.577L1131.5 442.499V315.999Z" fill="black"/>
<path id="Vector_2" d="M972 961.5L1300.89 816.953C1313.87 810.771 1324.79 800.965 1332.34 788.713C1339.9 776.461 1343.77 762.283 1343.49 747.881L1343.49 127L1209.54 127L1209.54 660.694C1209.54 678.528 1204.5 695.998 1195.01 711.081C1185.52 726.164 1171.96 738.244 1155.9 745.922L972 835L972 961.5Z" fill="black"/>
</g>
</g>
<path id="FxMinerProxy" d="M56 1440.8H198.5L187.4 1485.2H98.6L86.6 1534.1H162.8L151.4 1578.8H75.2L54.2 1664H0.5L56 1440.8ZM221.764 1575.2L193.864 1493.3H249.664L256.564 1521.8C258.664 1531.4 261.064 1541.6 262.864 1551.2L266.164 1546.4C271.864 1536.8 278.464 1526.9 283.864 1517.3L300.964 1493.3H357.664L285.664 1581.2L316.564 1664H260.764L252.664 1635.2C249.964 1625.3 247.564 1615.1 244.864 1605.8L241.564 1610.3C234.964 1619.6 228.364 1629.5 222.064 1639.7L203.764 1664H146.764L221.764 1575.2ZM403.461 1440.8H460.761L471.561 1539.5C472.761 1552.4 473.061 1566.5 473.061 1580.3L476.361 1575.5C484.161 1561.7 491.361 1547.6 498.261 1534.7L556.461 1440.8H615.261L559.761 1664H510.861L530.361 1585.1C536.061 1562.9 548.361 1529.6 556.461 1507.7L555.261 1510.1L524.061 1563.5L473.061 1645.1H443.661L434.361 1563.5L429.861 1510.1L426.561 1512.5C423.561 1534.4 419.961 1567.7 414.261 1589.9L395.961 1664H347.961L403.461 1440.8ZM686.047 1469.6C665.947 1469.6 654.847 1455.8 659.347 1437.2C662.647 1423.7 675.547 1414.7 691.447 1414.7C711.247 1414.7 722.347 1428.5 717.847 1447.4C714.547 1460.6 701.647 1469.6 686.047 1469.6ZM649.147 1493.3H702.247L659.947 1664H606.847L649.147 1493.3ZM845.434 1489.1C884.734 1489.1 895.534 1518.2 884.734 1560.8L859.234 1664H805.834L831.034 1562.6C836.734 1539.2 833.734 1534.7 822.334 1534.7C808.234 1534.7 798.634 1541.9 785.734 1551.8L756.334 1664H703.234L745.534 1493.3H788.734L787.534 1512.8C805.234 1499 824.434 1489.1 845.434 1489.1ZM980.795 1668.2C929.795 1668.2 898.895 1632.8 913.595 1573.7C926.795 1520.9 972.095 1489.1 1011.39 1489.1C1062.69 1489.1 1079.19 1527.2 1066.89 1576.7C1065.39 1583.3 1062.39 1592.9 1060.29 1596.8H958.895C957.995 1620.2 970.595 1627.4 990.095 1627.4C1004.49 1627.4 1017.39 1622.6 1030.89 1615.4L1044.09 1650.2C1023.09 1662.8 998.795 1668.2 980.795 1668.2ZM1026.39 1557.2C1030.89 1540.1 1027.89 1529.9 1010.49 1529.9C993.695 1529.9 976.295 1541.6 967.595 1562L1026.39 1557.2ZM1121.71 1493.3H1165.21L1161.01 1523L1162.21 1520.9C1180.51 1498.1 1200.61 1489.1 1215.61 1489.1C1227.91 1489.1 1233.31 1491.5 1237.81 1493.6L1221.31 1538C1215.61 1536.5 1210.81 1535.9 1205.41 1535.9C1190.71 1535.9 1171.51 1546.4 1156.81 1568.9L1132.51 1664H1079.41L1121.71 1493.3ZM1278.27 1440.8H1354.47C1403.67 1440.8 1441.47 1460.6 1427.07 1518.5C1414.47 1568.9 1370.07 1589.9 1322.97 1589.9H1294.77L1276.47 1664H1222.77L1278.27 1440.8ZM1326.57 1547.6C1352.67 1547.6 1371.27 1532.9 1377.27 1508.3C1382.37 1488.5 1371.27 1483.1 1345.47 1483.1H1321.47L1305.27 1547.6H1326.57ZM1466.82 1493.3H1510.32L1506.12 1523L1507.32 1520.9C1525.62 1498.1 1545.72 1489.1 1560.72 1489.1C1573.02 1489.1 1578.42 1491.5 1582.92 1493.6L1566.42 1538C1560.72 1536.5 1555.92 1535.9 1550.52 1535.9C1535.82 1535.9 1516.62 1546.4 1501.92 1568.9L1477.62 1664H1424.52L1466.82 1493.3ZM1637.27 1668.2C1591.67 1668.2 1558.37 1632.8 1573.07 1573.7C1586.57 1519.7 1632.17 1489.1 1673.57 1489.1C1718.87 1489.1 1752.17 1524.5 1737.47 1583.9C1723.97 1637.6 1678.37 1668.2 1637.27 1668.2ZM1639.67 1625C1661.57 1625 1677.77 1604.6 1685.57 1573.7C1691.87 1547.9 1688.87 1532.3 1671.17 1532.3C1648.97 1532.3 1632.77 1552.7 1624.97 1583.9C1618.67 1609.4 1621.67 1625 1639.67 1625ZM1798.81 1575.2L1770.91 1493.3H1826.71L1833.61 1521.8C1835.71 1531.4 1838.11 1541.6 1839.91 1551.2L1843.21 1546.4C1848.91 1536.8 1855.51 1526.9 1860.91 1517.3L1878.01 1493.3H1934.71L1862.71 1581.2L1893.61 1664H1837.81L1829.71 1635.2C1827.01 1625.3 1824.61 1615.1 1821.91 1605.8L1818.61 1610.3C1812.01 1619.6 1805.41 1629.5 1799.11 1639.7L1780.81 1664H1723.81L1798.81 1575.2ZM1924.25 1729.7C1911.05 1729.7 1904.45 1727.9 1897.55 1725.8L1913.15 1686.5C1916.15 1687.1 1920.35 1688 1922.15 1688C1940.45 1688 1953.05 1677.2 1959.35 1665.2L1964.45 1658.9L1941.05 1493.3H1993.55L1998.05 1566.5C1999.25 1582.1 1998.95 1598 1998.35 1614.8L2001.95 1610C2009.45 1593.8 2017.25 1577.9 2024.75 1561.7L2061.95 1493.3H2113.55L2012.15 1666.7C1984.55 1710.5 1962.65 1729.7 1924.25 1729.7Z" fill="white"/>
</g>
</svg>
